<svg width="49" height="101" viewBox="0 0 49 101" fill="none" xmlns="http://www.w3.org/2000/svg">
<g id="Lizzy">
<path d="M18.7519 50.0487H31.0636V80.3775H18.7519V50.0487Z" fill="#FFF9D9"/>
<path fill-rule="evenodd" clip-rule="evenodd" d="M30.5636 50.5487H19.2519V79.8775H30.5636V50.5487ZM18.7519 50.0487V80.3775H31.0636V50.0487H18.7519Z" fill="black"/>
<path d="M46.3781 30.6803C44.7266 39.0883 33.7661 53.2017 24.9077 53.2017C16.0493 53.2017 6.29008 42.5416 3.43737 30.6803C0.315553 17.7001 13.05 6.50739 24.9077 6.50739C36.7655 6.50739 46.3781 17.33 46.3781 30.6803Z" fill="#FFF9D9"/>
<path fill-rule="evenodd" clip-rule="evenodd" d="M46.3781 30.6803C46.3781 17.33 36.7655 6.50739 24.9077 6.50739C13.05 6.50739 0.315553 17.7001 3.43737 30.6803C6.29008 42.5416 16.0493 53.2017 24.9077 53.2017C33.7661 53.2017 44.7266 39.0883 46.3781 30.6803ZM37.9711 44.7626C41.9753 40.2393 45.0609 34.713 45.8781 30.6315C45.8547 17.5226 36.421 7.00739 24.9077 7.00739C19.127 7.00739 13.1052 9.74111 8.91462 14.0739C4.73047 18.4 2.41104 24.2747 3.92351 30.5634C5.32893 36.407 8.4387 41.9601 12.2845 46.0463C16.1402 50.143 20.6721 52.7017 24.9077 52.7017C26.9935 52.7017 29.2461 51.8685 31.5001 50.4426C33.7496 49.0194 35.9667 47.0268 37.9711 44.7626Z" fill="black"/>
<path d="M12.2958 25.6078C14.8098 24.486 17.3632 24.7705 18.7519 25.2642L19.8029 28.3422C14.9983 36.2096 12.7963 29.7974 12.2958 25.6078Z" fill="#185F06"/>
<path fill-rule="evenodd" clip-rule="evenodd" d="M12.1939 25.3795C14.7768 24.227 17.3978 24.5175 18.8356 25.0287L18.9494 25.0691L21.0904 31.3393L20.6173 31.5009L19.736 28.92C18.6427 30.6211 17.6652 31.6119 16.7841 32.0473C16.2997 32.2866 15.8382 32.3611 15.405 32.2853C14.9736 32.2097 14.5938 31.9892 14.2638 31.6783C13.6111 31.0634 13.1227 30.0668 12.7668 28.9872C12.4466 28.0159 12.2253 26.9517 12.0916 25.98C10.6802 26.6785 9.29128 27.8548 8.15598 29.747L7.72723 29.4897C8.99654 27.3742 10.5833 26.0981 12.1939 25.3795ZM12.567 25.7627C12.695 26.7509 12.9166 27.8445 13.2417 28.8306C13.5895 29.8857 14.0458 30.786 14.6067 31.3144C14.8836 31.5752 15.1779 31.7379 15.4913 31.7928C15.803 31.8474 16.157 31.7994 16.5626 31.599C17.3726 31.1988 18.36 30.2036 19.5283 28.3116L18.5548 25.4609C17.2239 25.0199 14.8895 24.7863 12.567 25.7627Z" fill="black"/>
<path d="M36.9191 25.4415C34.4051 24.3197 31.8517 24.6042 30.463 25.098L29.412 28.1759C34.2166 36.0433 36.4187 29.6311 36.9191 25.4415Z" fill="#185F06"/>
<path fill-rule="evenodd" clip-rule="evenodd" d="M37.021 25.2132C34.4381 24.0607 31.817 24.3512 30.3792 24.8624L30.2654 24.9029L28.1244 31.173L28.5976 31.3346L29.4789 28.7537C30.5721 30.4548 31.5497 31.4456 32.4308 31.881C32.9151 32.1203 33.3767 32.1948 33.8098 32.119C34.2413 32.0435 34.6211 31.8229 34.951 31.512C35.6038 30.8971 36.0921 29.9005 36.4481 28.8209C36.7683 27.8496 36.9895 26.7854 37.1233 25.8138C38.5347 26.5122 39.9236 27.6885 41.0589 29.5807L41.4876 29.3235C40.2183 27.2079 38.6315 25.9318 37.021 25.2132ZM36.6479 25.5964C36.5198 26.5846 36.2983 27.6782 35.9732 28.6643C35.6253 29.7194 35.1691 30.6197 34.6082 31.1481C34.3313 31.4089 34.037 31.5716 33.7236 31.6265C33.4119 31.6811 33.0578 31.6332 32.6523 31.4327C31.8423 31.0325 30.8549 30.0373 29.6866 28.1453L30.66 25.2946C31.9909 24.8536 34.3253 24.62 36.6479 25.5964Z" fill="black"/>
<path fill-rule="evenodd" clip-rule="evenodd" d="M14.4207 22.1995C16.5916 22.0726 18.7952 22.4147 20.1659 22.7701L20.0404 23.2541C18.7086 22.9088 16.5581 22.5754 14.4499 22.6987C12.3309 22.8226 10.3209 23.4036 9.18786 24.8199L8.79742 24.5075C10.0667 22.9209 12.2607 22.3258 14.4207 22.1995Z" fill="black"/>
<path fill-rule="evenodd" clip-rule="evenodd" d="M34.9443 22.3387C32.7735 22.2118 30.5699 22.554 29.1991 22.9093L29.3246 23.3933C30.6564 23.0481 32.807 22.7146 34.9151 22.8379C37.0342 22.9618 39.0442 23.5428 40.1772 24.9591L40.5676 24.6467C39.2984 23.0602 37.1044 22.465 34.9443 22.3387Z" fill="black"/>
<path fill-rule="evenodd" clip-rule="evenodd" d="M24.4427 37.712C23.5632 37.6205 22.7369 37.3086 22.2389 37.0465L22.4718 36.604C22.9247 36.8424 23.6898 37.131 24.4944 37.2147C25.3009 37.2986 26.105 37.1734 26.6914 36.6402L27.0278 37.0102C26.293 37.6782 25.3203 37.8033 24.4427 37.712Z" fill="black"/>
<path d="M2.23621 76.9937C2.23621 67.3434 9.22819 59.1142 18.7519 57.5558L24.7576 65.3632L31.0636 57.5558C40.2542 59.1165 46.9786 67.0791 46.9786 76.4013V100.196H2.23621V76.9937Z" fill="#400404"/>
<path fill-rule="evenodd" clip-rule="evenodd" d="M18.7519 57.5558C9.22819 59.1142 2.23621 67.3434 2.23621 76.9937V100.196H46.9786V76.4013C46.9786 67.0791 40.2542 59.1165 31.0636 57.5558L24.7576 65.3632L18.7519 57.5558ZM31.2669 58.0998L24.748 66.1708L18.5393 58.0996C9.40749 59.7377 2.73621 67.6877 2.73621 76.9937V99.6963H46.4786V76.4013C46.4786 67.4203 40.0698 59.7351 31.2669 58.0998Z" fill="black"/>
<path fill-rule="evenodd" clip-rule="evenodd" d="M18.8168 58.2406L19.2875 58.0721L25.2829 74.8227L31.1278 58.074L31.5999 58.2388L25.2889 76.3231L18.8168 58.2406Z" fill="black"/>
<path fill-rule="evenodd" clip-rule="evenodd" d="M23.7287 43.5115C21.8837 43.3691 20.3011 42.8812 19.3987 42.4687L19.6066 42.0139C20.4558 42.4021 21.9811 42.8751 23.7671 43.013C25.5521 43.1508 27.5805 42.9526 29.4504 42.0177L29.674 42.4649C27.7002 43.4518 25.5746 43.654 23.7287 43.5115Z" fill="black"/>
<path fill-rule="evenodd" clip-rule="evenodd" d="M24.572 45.5121C24.0093 45.4658 23.4808 45.3082 23.16 45.1746L23.3523 44.7131C23.6322 44.8297 24.1096 44.9724 24.6129 45.0137C25.1217 45.0555 25.6136 44.9904 25.9636 44.7404L26.2542 45.1473C25.7634 45.4978 25.1292 45.5578 24.572 45.5121Z" fill="black"/>
<path fill-rule="evenodd" clip-rule="evenodd" d="M7.56441 24.7281C7.21638 27.2199 7.24478 29.9779 8.22583 32.1541C8.72517 33.2617 9.47026 34.2166 10.5392 34.9142C11.6088 35.6123 13.0174 36.0623 14.8582 36.1359C18.4763 36.2807 20.7204 34.0111 21.6504 31.3851C22.1162 30.0701 22.2468 28.6766 22.0545 27.4729C21.8616 26.2659 21.35 25.2786 20.561 24.7297C19.9174 24.2821 18.9888 23.9992 17.8812 23.8488C16.778 23.699 15.5206 23.6836 14.2386 23.7532C11.7587 23.8877 9.21277 24.3389 7.56441 24.7281ZM17.9485 23.3534C19.0892 23.5083 20.1087 23.806 20.8465 24.3193C21.7841 24.9715 22.3422 26.105 22.5482 27.3941C22.7547 28.6865 22.6132 30.1645 22.1218 31.552C21.1375 34.3311 18.7272 36.7911 14.8382 36.6355C12.9254 36.559 11.425 36.0894 10.2659 35.333C9.10616 34.5761 8.3029 33.5416 7.77001 32.3596C6.70861 30.0052 6.7158 27.0579 7.09371 24.4881L7.11825 24.3213L7.28215 24.2815C8.9451 23.8784 11.6106 23.395 14.2115 23.2539C15.512 23.1833 16.8033 23.1979 17.9485 23.3534Z" fill="black"/>
<path fill-rule="evenodd" clip-rule="evenodd" d="M42.2857 25.1887C42.6338 27.6805 42.6054 30.4385 41.6243 32.6146C41.125 33.7223 40.3799 34.6772 39.311 35.3748C38.2414 36.0729 36.8328 36.5229 34.992 36.5965C31.3739 36.7412 29.1298 34.4717 28.1997 31.8457C27.734 30.5307 27.6034 29.1372 27.7957 27.9335C27.9886 26.7264 28.5002 25.7392 29.2892 25.1903C29.9327 24.7426 30.8614 24.4598 31.969 24.3094C33.0722 24.1596 34.3296 24.1442 35.6115 24.2137C38.0914 24.3483 40.6374 24.7995 42.2857 25.1887ZM31.9017 23.814C30.7609 23.9689 29.7415 24.2666 29.0037 24.7798C28.066 25.4321 27.5079 26.5656 27.302 27.8546C27.0955 29.1471 27.237 30.6251 27.7284 32.0126C28.7127 34.7917 31.123 37.2517 35.012 37.0961C36.9248 37.0196 38.4252 36.55 39.5842 35.7935C40.744 35.0366 41.5473 34.0022 42.0801 32.8201C43.1416 30.4658 43.1344 27.5185 42.7565 24.9487L42.7319 24.7818L42.568 24.7421C40.9051 24.339 38.2396 23.8556 35.6386 23.7145C34.3381 23.6439 33.0468 23.6585 31.9017 23.814Z" fill="black"/>
<path fill-rule="evenodd" clip-rule="evenodd" d="M24.5578 27.4824C23.6851 27.5983 22.93 27.9976 22.5088 28.3252L22.2018 27.9306C22.6815 27.5575 23.5179 27.1161 24.492 26.9867C25.4749 26.8562 26.6013 27.0442 27.6248 27.9398L27.2955 28.3161C26.3972 27.53 25.4216 27.3677 24.5578 27.4824Z" fill="black"/>
<path d="M9.59319 5.75669C12.9564 1.07225 21.6046 0.801989 25.5083 1.25242C41.4234 0.351564 44.4262 9.20996 47.5792 16.4168C50.1016 22.1823 47.7294 29.1289 46.2279 31.8815C46.5282 30.9806 46.5883 28.248 44.4262 24.5245C41.7237 19.8701 39.0211 20.0202 37.82 21.8219C36.6188 23.6236 32.7151 19.1194 30.463 17.6179C30.9134 20.1704 26.259 20.7709 24.157 22.5726C22.055 24.3743 20.4035 17.6179 19.953 16.4168C19.5026 15.2157 16.8 19.1194 13.3468 20.7709C13.4969 20.0202 11.9955 19.1194 10.9445 17.6179C8.22247 19.3371 6.32066 24.4737 2.63032 29.767C2.51288 30.0263 2.3361 30.2802 2.08607 30.5302C2.2718 30.2757 2.45312 30.0211 2.63032 29.767C3.78226 27.2236 -0.775219 24.1607 2.08607 19.1194C5.23906 13.5641 5.3892 11.6122 9.59319 5.75669Z" fill="#2FD2AB"/>
<path fill-rule="evenodd" clip-rule="evenodd" d="M25.5156 1.00161C33.5119 0.553033 38.3096 2.55465 41.5025 5.6137C44.3747 8.36551 45.9243 11.956 47.3535 15.2675C47.506 15.6208 47.6571 15.971 47.8083 16.3166C49.0955 19.2587 49.1293 22.49 48.6591 25.3199C48.1889 28.1502 47.2109 30.6015 46.4474 32.0012L45.9908 31.8024C46.261 30.9916 46.3497 28.3349 44.21 24.65C42.872 22.3455 41.5645 21.2868 40.494 20.9933C39.4494 20.7069 38.578 21.1356 38.028 21.9606C37.8436 22.2372 37.5962 22.4047 37.3016 22.4651C37.0162 22.5235 36.7087 22.4772 36.4005 22.3732C35.7878 22.1664 35.0887 21.7024 34.3827 21.1564C33.7687 20.6816 33.1303 20.1292 32.5176 19.5991C32.4212 19.5157 32.3254 19.4328 32.2304 19.3509C31.6958 18.8896 31.1896 18.4598 30.7369 18.1198C30.6967 18.6062 30.4784 19.0231 30.1477 19.3843C29.7098 19.8628 29.0702 20.2501 28.3802 20.5998C27.9847 20.8002 27.5514 20.9982 27.12 21.1952C26.8077 21.3379 26.4964 21.4801 26.201 21.6225C25.4798 21.9703 24.8193 22.3342 24.3197 22.7624C24.0202 23.0192 23.7031 23.1436 23.3765 23.1242C23.0555 23.1052 22.7662 22.9495 22.5124 22.7282C22.0116 22.2916 21.5759 21.5353 21.208 20.724C20.8362 19.9042 20.5184 18.9928 20.2665 18.2159C20.1574 17.8794 20.0619 17.5722 19.9796 17.3078C19.8689 16.9519 19.7822 16.6733 19.7189 16.5046C19.7015 16.4581 19.6864 16.4448 19.6846 16.4434L19.6838 16.4428C19.6838 16.4428 19.6798 16.4414 19.6714 16.4411C19.6254 16.4392 19.5236 16.4652 19.3452 16.5724C18.999 16.7806 18.5308 17.1887 17.9419 17.7111C17.9033 17.7453 17.8644 17.7799 17.825 17.8149C16.6801 18.8313 15.1602 20.1807 13.4546 20.9965L13.0036 21.2122L13.1016 20.7219C13.1205 20.6273 13.0939 20.4988 12.9717 20.3071C12.8504 20.1168 12.6598 19.9026 12.416 19.6494C12.3304 19.5605 12.2389 19.4675 12.1433 19.3704C11.7525 18.9733 11.2929 18.5063 10.8832 17.9594C9.66234 18.8194 8.58327 20.4193 7.36575 22.4794C7.05821 22.9997 6.74265 23.5479 6.41469 24.1176C5.3909 25.8959 4.24634 27.8841 2.84821 29.8916C2.71698 30.1739 2.52474 30.4451 2.26285 30.707L1.88412 30.3828C2.06401 30.1363 2.23979 29.8897 2.41169 29.6434C2.65253 29.0946 2.60054 28.5036 2.38976 27.8121C2.28315 27.4624 2.13886 27.0961 1.97852 26.7042C1.94654 26.6261 1.91391 26.5469 1.88087 26.4667C1.74953 26.1479 1.61175 25.8134 1.48289 25.4671C0.831541 23.7166 0.38729 21.606 1.86865 18.996C3.02344 16.9613 3.77181 15.4162 4.46906 13.9767C4.72109 13.4563 4.96645 12.9497 5.2219 12.4388C6.18443 10.5138 7.27968 8.55041 9.39011 5.61089C11.1277 3.19066 14.2085 1.93455 17.3004 1.33357C20.3891 0.733196 23.5416 0.776144 25.5156 1.00161ZM3.06601 28.6807C4.17119 27.0121 5.11079 25.38 5.97377 23.8811C6.30383 23.3078 6.62269 22.7539 6.93531 22.225C8.20745 20.0725 9.39098 18.3034 10.811 17.4066L11.0126 17.2792L11.1493 17.4746C11.5661 18.07 12.0536 18.5658 12.4899 19.0094C12.5884 19.1096 12.6843 19.2071 12.7761 19.3025C13.0202 19.556 13.2425 19.8017 13.3934 20.0383C13.4629 20.1474 13.5227 20.263 13.5612 20.3836C15.0724 19.5895 16.4295 18.3849 17.5086 17.4271C17.5427 17.3969 17.5765 17.3668 17.6101 17.3371C18.1847 16.8273 18.6924 16.3815 19.0876 16.1439C19.2799 16.0283 19.4901 15.9334 19.6915 15.9415C19.8012 15.9459 19.9086 15.9809 20.0005 16.0558C20.0895 16.1284 20.1482 16.2254 20.1871 16.329C20.2545 16.5086 20.349 16.8121 20.4652 17.1853C20.5473 17.4489 20.6403 17.7474 20.7421 18.0616C20.9923 18.833 21.3032 19.7234 21.6634 20.5175C22.0274 21.3203 22.4269 21.9903 22.841 22.3513C23.0447 22.5289 23.2327 22.6148 23.4062 22.6251C23.5741 22.6351 23.7684 22.5765 23.9943 22.3828C24.5457 21.9102 25.2553 21.5234 25.9839 21.1721C26.3029 21.0183 26.6199 20.8737 26.932 20.7313C27.3503 20.5405 27.76 20.3536 28.1541 20.1538C28.8342 19.8091 29.4051 19.4551 29.7789 19.0467C30.1425 18.6495 30.3135 18.2092 30.2168 17.6614L30.1152 17.0856L30.6017 17.4099C31.1798 17.7954 31.8578 18.3689 32.5571 18.9723C32.653 19.0551 32.7494 19.1385 32.8462 19.2222C33.4598 19.7531 34.0865 20.2952 34.6885 20.7608C35.3901 21.3034 36.0329 21.7214 36.5604 21.8994C36.8222 21.9878 37.0344 22.0094 37.2012 21.9752C37.3588 21.9429 37.4961 21.8571 37.612 21.6832C38.2631 20.7066 39.3435 20.1594 40.6262 20.5111C41.8829 20.8556 43.278 22.049 44.6424 24.399C46.1282 26.9577 46.5889 29.0753 46.6276 30.48C47.2192 29.1128 47.8272 27.2766 48.1659 25.238C48.6266 22.4651 48.5854 19.3403 47.3502 16.517C47.1989 16.1711 47.0481 15.8221 46.8965 15.4711C45.4611 12.1477 43.9513 8.65231 41.1566 5.97474C38.0839 3.03083 33.4283 1.05451 25.5224 1.50202L25.501 1.50323L25.4796 1.50077C23.5485 1.27794 20.4367 1.23329 17.3958 1.82438C14.3468 2.41703 11.4219 3.63827 9.79628 5.90249C7.70272 8.81852 6.62091 10.7589 5.66912 12.6624C5.41778 13.1651 5.17477 13.6668 4.92413 14.1843C4.22524 15.6273 3.467 17.1928 2.30349 19.2428C0.92357 21.6741 1.32741 23.6155 1.9515 25.2927C2.07704 25.6301 2.21065 25.9545 2.34165 26.2725C2.37509 26.3537 2.40836 26.4344 2.44129 26.5149C2.60194 26.9076 2.75407 27.2925 2.86803 27.6664C2.97171 28.0065 3.04623 28.3451 3.06601 28.6807Z" fill="black"/>
</g>
</svg>
