<svg width="62" height="102" viewBox="0 0 62 102" fill="none" xmlns="http://www.w3.org/2000/svg">
<g id="Skylar">
<path d="M24.6362 50.9985H36.9478V81.3272H24.6362V50.9985Z" fill="#FFF9D9"/>
<path fill-rule="evenodd" clip-rule="evenodd" d="M36.4478 51.4985H25.1362V80.8272H36.4478V51.4985ZM24.6362 50.9985V81.3272H36.9478V50.9985H24.6362Z" fill="black"/>
<path d="M8.12048 77.9435C8.12048 68.2931 15.1125 60.064 24.6362 58.5056L30.6418 66.313L36.9478 58.5056C46.1385 60.0663 52.8629 68.0289 52.8629 77.3511V101.146H8.12048V77.9435Z" fill="#123F21"/>
<path fill-rule="evenodd" clip-rule="evenodd" d="M24.6362 58.5056C15.1125 60.064 8.12048 68.2931 8.12048 77.9435V101.146H52.8629V77.3511C52.8629 68.0289 46.1385 60.0663 36.9478 58.5056L30.6418 66.313L24.6362 58.5056ZM37.1512 59.0496L30.6323 67.1206L24.4236 59.0493C15.2918 60.6875 8.62048 68.6375 8.62048 77.9435V100.646H52.3629V77.3511C52.3629 68.3701 45.954 60.6848 37.1512 59.0496Z" fill="black"/>
<path d="M55.5655 31.6301C53.7638 40.0381 41.6023 54.3016 29.8911 54.3016C23.435 54.3016 8.72108 43.0409 8.72107 31.6301C8.72107 18.2797 19.2076 7.45715 32.1433 7.45715C45.079 7.45715 55.5655 18.2797 55.5655 31.6301Z" fill="#FFF9D9"/>
<path fill-rule="evenodd" clip-rule="evenodd" d="M55.5655 31.6301C55.5655 18.2797 45.079 7.45715 32.1433 7.45715C19.2076 7.45715 8.72107 18.2797 8.72107 31.6301C8.72108 43.0409 23.435 54.3016 29.8911 54.3016C41.6023 54.3016 53.7638 40.0381 55.5655 31.6301ZM46.0951 45.761C50.7642 41.2031 54.1748 35.6461 55.0654 31.5768C55.0376 18.5122 44.771 7.95715 32.1433 7.95715C19.4984 7.95715 9.22107 18.5409 9.22107 31.6301C9.22107 37.1334 12.7835 42.6783 17.2286 46.8816C19.442 48.9746 21.8512 50.7122 24.097 51.9238C26.3563 53.1426 28.3992 53.8016 29.8911 53.8016C35.5563 53.8016 41.405 50.3395 46.0951 45.761Z" fill="black"/>
<path d="M12.6354 23.3786C11.6745 13.8895 24.4466 12.5182 30.9528 13.0187V0.256614C19.542 -0.0436705 5.59409 9.95089 4.07731 15.8714C0.463215 29.9785 4.07731 39.5876 1.22461 46.3503C-2.22378 54.5252 3.92718 69.172 12.6354 64.2173C21.3437 59.2626 8.73173 55.3589 12.6354 44.0982C16.5391 32.8375 13.8366 35.2398 12.6354 23.3786Z" fill="#3D1D0B"/>
<path fill-rule="evenodd" clip-rule="evenodd" d="M7.49195 11.0651C5.80362 12.8186 4.68275 14.5156 4.3195 15.9335C2.52114 22.9531 2.52032 28.8544 2.6154 33.8603C2.62184 34.1993 2.62875 34.5345 2.63558 34.866C2.72925 39.4091 2.80823 43.2394 1.45496 46.4475C-0.233631 50.4505 0.423804 56.0758 2.59125 60.0886C3.67316 62.0916 5.11636 63.6643 6.79829 64.4383C8.46745 65.2065 10.3998 65.2016 12.5118 64C14.661 62.7772 15.4181 61.6628 15.5111 60.5462C15.5586 59.9766 15.4366 59.3793 15.1983 58.7293C14.9596 58.0782 14.6104 57.3903 14.2158 56.6387C14.1596 56.5317 14.1026 56.4236 14.045 56.3144C12.4867 53.3589 10.4799 49.553 12.3992 44.0163C14.3489 38.3922 14.6309 36.2264 14.3024 34.0001C14.1906 33.2418 14.009 32.4809 13.7917 31.5699C13.6842 31.1195 13.568 30.6325 13.4471 30.0909C13.084 28.464 12.6881 26.3803 12.3867 23.4037C12.1402 20.9694 12.7753 19.0387 13.982 17.5301C15.1834 16.0281 16.9376 14.9613 18.9057 14.2187C22.7323 12.7748 27.4364 12.5303 30.7028 12.7501V0.501705C25.1276 0.427234 18.9444 2.80214 13.9376 5.94299C11.4005 7.53459 9.17483 9.31714 7.49195 11.0651ZM13.6719 5.51944C18.798 2.30373 25.1867 -0.145212 30.9594 0.00670123L31.2028 0.0131071V13.2887L30.9336 13.268C27.7006 13.0193 22.9215 13.2378 19.0822 14.6865C17.1642 15.4102 15.4988 16.4342 14.3724 17.8424C13.2513 19.2441 12.6502 21.0432 12.8842 23.3534C13.1833 26.3075 13.5757 28.3715 13.9351 29.982C14.0514 30.5028 14.1652 30.98 14.2717 31.4266C14.4925 32.3524 14.682 33.147 14.7971 33.9271C15.1442 36.2801 14.8256 38.5436 12.8717 44.1801C11.024 49.5098 12.9398 53.1448 14.4941 56.094C14.5494 56.199 14.6043 56.303 14.6585 56.4063C15.0521 57.1561 15.4162 57.8711 15.6677 58.5572C15.9197 59.2444 16.0652 59.9187 16.0094 60.5877C15.896 61.9485 14.9641 63.18 12.7591 64.4346C10.5169 65.7103 8.41483 65.7326 6.58926 64.8925C4.77645 64.0583 3.26463 62.3874 2.15132 60.3262C-0.0716786 56.2106 -0.765528 50.425 0.994267 46.2532C2.30423 43.1477 2.22829 39.424 2.13473 34.8359C2.12825 34.518 2.12168 34.196 2.11549 33.8698C2.02022 28.8537 2.0194 22.8969 3.83514 15.8094C4.23028 14.267 5.42168 12.4944 7.13176 10.7183C8.8473 8.93643 11.1061 7.12901 13.6719 5.51944Z" fill="black"/>
<path d="M49.2595 23.3788C50.2204 13.8898 37.4483 12.5185 30.9422 13.019V0.256912C42.353 -0.0433725 56.2574 9.96251 57.8176 15.8717C60.6703 26.6757 59.7695 37.7862 60.6703 46.3506C61.5985 55.1743 57.9678 69.1723 49.2595 64.2176C40.5513 59.2629 53.1632 55.3592 49.2595 44.0985C45.3558 32.8378 48.0584 35.2401 49.2595 23.3788Z" fill="#3D1D0B"/>
<path fill-rule="evenodd" clip-rule="evenodd" d="M54.3848 11.0703C56.0752 12.8234 57.202 14.5195 57.5759 15.9355C58.9955 21.3121 59.4825 26.77 59.7262 31.9627C59.807 33.6847 59.8611 35.3803 59.9138 37.0344C60.0197 40.3569 60.1203 43.5119 60.4217 46.3768C60.8821 50.7537 60.209 56.4113 58.3525 60.3443C57.4239 62.3114 56.215 63.8141 54.7375 64.5321C53.2764 65.2421 51.5046 65.2074 49.3831 64.0003C47.234 62.7775 46.4768 61.6631 46.3838 60.5465C46.3363 59.9769 46.4583 59.3796 46.6966 58.7296C46.9354 58.0785 47.2845 57.3906 47.6791 56.639C47.7353 56.532 47.7923 56.4239 47.8499 56.3147C49.4083 53.3592 51.4151 49.5533 49.4957 44.0166C47.546 38.3925 47.264 36.2267 47.5925 34.0004C47.7044 33.2421 47.8859 32.4812 48.1033 31.5702C48.2107 31.1198 48.3269 30.6328 48.4478 30.0912C48.8109 28.4643 49.2068 26.3806 49.5082 23.404C49.7547 20.9697 49.1196 19.039 47.9129 17.5304C46.7115 16.0284 44.9574 14.9616 42.9892 14.219C39.1626 12.7751 34.4585 12.5306 31.1921 12.7504V0.502004C36.7669 0.427617 42.9394 2.80519 47.9408 5.94744C50.4753 7.53974 52.6997 9.32271 54.3848 11.0703ZM48.2068 5.52407C43.0862 2.30696 36.7084 -0.144918 30.9355 0.00699918L30.6921 0.0134051V13.289L30.9613 13.2683C34.1943 13.0196 38.9734 13.2381 42.8127 14.6868C44.7307 15.4105 46.3961 16.4345 47.5225 17.8427C48.6436 19.2444 49.2447 21.0435 49.0108 23.3537C48.7116 26.3078 48.3193 28.3718 47.9598 29.9823C47.8436 30.5031 47.7298 30.9803 47.6232 31.4269C47.4025 32.3527 47.213 33.1473 47.0979 33.9274C46.7507 36.2804 47.0693 38.5439 49.0233 44.1804C50.8709 49.5101 48.9551 53.1451 47.4008 56.0943C47.3455 56.1992 47.2906 56.3033 47.2364 56.4066C46.8428 57.1564 46.4788 57.8714 46.2272 58.5575C45.9752 59.2447 45.8298 59.919 45.8855 60.588C45.9989 61.9488 46.9309 63.1803 49.1359 64.4349C51.3685 65.7052 53.3162 65.7787 54.956 64.9818C56.5794 64.193 57.853 62.5737 58.8046 60.5577C60.7085 56.5245 61.3867 50.7713 60.9189 46.3245C60.6195 43.4773 60.52 40.354 60.4145 37.0435C60.3617 35.3853 60.3073 33.6802 60.2256 31.9393C59.9814 26.7346 59.4924 21.2354 58.0593 15.8079C57.6531 14.2694 56.4568 12.4988 54.7447 10.7232C53.0272 8.94206 50.7699 7.13435 48.2068 5.52407Z" fill="black"/>
<path d="M18.7806 26.7186C21.2946 25.5969 23.848 25.8813 25.2367 26.3751L26.2877 29.453C21.4831 37.3205 19.2811 30.9082 18.7806 26.7186Z" fill="#24CCF1"/>
<path fill-rule="evenodd" clip-rule="evenodd" d="M18.6787 26.4904C21.2616 25.3379 23.8827 25.6283 25.3205 26.1396L25.4343 26.18L27.5753 32.4502L27.1021 32.6117L26.2209 30.0308C25.1276 31.7319 24.15 32.7228 23.2689 33.1582C22.7846 33.3975 22.323 33.472 21.8899 33.3962C21.4584 33.3206 21.0787 33.1 20.7487 32.7892C20.096 32.1743 19.6076 31.1777 19.2517 30.098C18.9314 29.1268 18.7102 28.0625 18.5764 27.0909C17.165 27.7894 15.7761 28.9657 14.6408 30.8579L14.2121 30.6006C15.4814 28.4851 17.0682 27.209 18.6787 26.4904ZM19.0518 26.8736C19.1799 27.8618 19.4014 28.9554 19.7265 29.9415C20.0744 30.9966 20.5307 31.8969 21.0916 32.4253C21.3684 32.6861 21.6627 32.8488 21.9761 32.9037C22.2878 32.9582 22.6419 32.9103 23.0474 32.7099C23.8574 32.3096 24.8448 31.3145 26.0131 29.4225L25.0397 26.5718C23.7088 26.1308 21.3744 25.8972 19.0518 26.8736Z" fill="black"/>
<path d="M43.404 26.5524C40.89 25.4306 38.3366 25.715 36.9479 26.2088L35.8969 29.2867C40.7014 37.1542 42.9035 30.7419 43.404 26.5524Z" fill="#24CCF1"/>
<path fill-rule="evenodd" clip-rule="evenodd" d="M43.5058 26.324C40.9229 25.1715 38.3019 25.462 36.8641 25.9732L36.7503 26.0137L34.6093 32.2838L35.0824 32.4454L35.9637 29.8645C37.057 31.5656 38.0345 32.5564 38.9156 32.9918C39.4 33.2312 39.8615 33.3057 40.2947 33.2298C40.7262 33.1543 41.1059 32.9337 41.4359 32.6229C42.0886 32.008 42.577 31.0113 42.9329 29.9317C43.2531 28.9604 43.4744 27.8962 43.6081 26.9246C45.0195 27.6231 46.4084 28.7994 47.5437 30.6915L47.9725 30.4343C46.7032 28.3188 45.1164 27.0427 43.5058 26.324ZM43.1327 26.7073C43.0047 27.6954 42.7832 28.7891 42.4581 29.7751C42.1102 30.8303 41.6539 31.7305 41.093 32.2589C40.8161 32.5198 40.5218 32.6825 40.2084 32.7373C39.8968 32.7919 39.5427 32.744 39.1371 32.5436C38.3271 32.1433 37.3397 31.1482 36.1715 29.2562L37.1449 26.4055C38.4758 25.9644 40.8102 25.7309 43.1327 26.7073Z" fill="black"/>
<path fill-rule="evenodd" clip-rule="evenodd" d="M20.9055 23.3103C23.0764 23.1834 25.28 23.5256 26.6507 23.881L26.5252 24.365C25.1934 24.0197 23.0429 23.6862 20.9347 23.8095C18.8157 23.9334 16.8057 24.5144 15.6727 25.9307L15.2822 25.6183C16.5515 24.0318 18.7455 23.4367 20.9055 23.3103Z" fill="black"/>
<path fill-rule="evenodd" clip-rule="evenodd" d="M41.4291 23.4496C39.2583 23.3226 37.0547 23.6648 35.6839 24.0202L35.8094 24.5042C37.1412 24.1589 39.2918 23.8254 41.4 23.9487C43.519 24.0726 45.529 24.6536 46.662 26.0699L47.0524 25.7576C45.7832 24.171 43.5892 23.5759 41.4291 23.4496Z" fill="black"/>
<path fill-rule="evenodd" clip-rule="evenodd" d="M30.9275 38.8228C30.048 38.7314 29.2217 38.4194 28.7237 38.1573L28.9566 37.7148C29.4095 37.9532 30.1746 38.2418 30.9792 38.3255C31.7858 38.4094 32.5898 38.2842 33.1762 37.7511L33.5126 38.1211C32.7778 38.7891 31.8051 38.9141 30.9275 38.8228Z" fill="black"/>
<path fill-rule="evenodd" clip-rule="evenodd" d="M35.828 41.2642L35.6868 41.7583C35.6369 41.9331 35.5881 42.1059 35.54 42.2764C35.1605 43.6227 34.8214 44.8254 34.2487 45.7104C33.9203 46.218 33.51 46.6312 32.965 46.9153C32.4213 47.1986 31.7601 47.3447 30.9421 47.3447C29.3124 47.3447 28.1804 46.8756 27.3887 45.9011C26.6128 44.9462 26.1922 43.5382 25.891 41.7307L25.824 41.329L26.2125 41.4511C27.0691 41.7203 28.5651 42.0468 30.2468 42.1419C31.9306 42.2372 33.7784 42.0992 35.3521 41.4581L35.828 41.2642ZM26.4531 42.0426C26.7456 43.6353 27.1401 44.8023 27.7767 45.5858C28.4489 46.413 29.4189 46.8447 30.9421 46.8447C31.7007 46.8447 32.2781 46.7094 32.7339 46.4719C33.1882 46.2351 33.5381 45.8883 33.8289 45.4387C34.3576 44.6218 34.6747 43.4995 35.0604 42.1345C35.064 42.1217 35.0676 42.109 35.0712 42.0962C33.516 42.6246 31.7813 42.7295 30.2186 42.6411C28.7241 42.5566 27.3702 42.2942 26.4531 42.0426Z" fill="black"/>
<path fill-rule="evenodd" clip-rule="evenodd" d="M24.701 59.1904L25.1718 59.0219L31.1672 75.7725L37.0121 59.0238L37.4841 59.1885L31.1732 77.2729L24.701 59.1904Z" fill="black"/>
</g>
</svg>
